<?xml version="1.0" encoding="utf-8"?>
<svg viewBox="99.62 201.482 300.759 97.036" xmlns="http://www.w3.org/2000/svg">
  <path d="M 112.951 274.192 C 109.367 274.192 106.635 273.173 104.753 271.134 C 102.871 269.096 101.931 266.173 101.931 262.365 L 101.931 226.48 L 109.323 226.48 L 109.323 262.902 C 109.323 264.515 109.647 265.68 110.297 266.397 C 110.947 267.114 111.876 267.472 113.086 267.472 C 114.295 267.472 115.225 267.114 115.875 266.397 C 116.524 265.68 116.849 264.515 116.849 262.902 L 116.849 226.48 L 123.972 226.48 L 123.972 262.365 C 123.972 266.173 123.031 269.096 121.15 271.134 C 119.268 273.173 116.535 274.192 112.951 274.192 Z M 129.213 226.48 L 136.605 226.48 L 136.605 266.8 L 148.768 266.8 L 148.768 273.52 L 129.213 273.52 L 129.213 226.48 Z M 152.865 233.2 L 145.137 233.2 L 145.137 226.48 L 167.985 226.48 L 167.985 233.2 L 160.257 233.2 L 160.257 273.52 L 152.865 273.52 L 152.865 233.2 Z M 171.544 226.48 L 182.498 226.48 C 186.306 226.48 189.083 227.365 190.831 229.134 C 192.578 230.904 193.451 233.626 193.451 237.299 L 193.451 240.189 C 193.451 245.072 191.839 248.163 188.613 249.462 L 188.613 249.597 C 190.405 250.134 191.671 251.232 192.41 252.89 C 193.149 254.547 193.519 256.765 193.519 259.542 L 193.519 267.808 C 193.519 269.152 193.563 270.238 193.653 271.067 C 193.743 271.896 193.967 272.714 194.325 273.52 L 186.799 273.52 C 186.53 272.758 186.351 272.042 186.261 271.37 C 186.171 270.698 186.127 269.488 186.127 267.741 L 186.127 259.139 C 186.127 256.989 185.779 255.488 185.085 254.637 C 184.391 253.786 183.192 253.36 181.49 253.36 L 178.936 253.36 L 178.936 273.52 L 171.544 273.52 L 171.544 226.48 Z M 181.624 246.64 C 183.103 246.64 184.211 246.259 184.951 245.498 C 185.69 244.736 186.059 243.459 186.059 241.667 L 186.059 238.038 C 186.059 236.336 185.757 235.104 185.152 234.342 C 184.547 233.581 183.595 233.2 182.296 233.2 L 178.936 233.2 L 178.936 246.64 L 181.624 246.64 Z M 204.34 226.48 L 214.353 226.48 L 222.014 273.52 L 214.622 273.52 L 213.278 264.179 L 213.278 264.314 L 204.878 264.314 L 203.534 273.52 L 196.68 273.52 L 204.34 226.48 Z M 212.404 257.93 L 209.112 234.678 L 208.977 234.678 L 205.752 257.93 L 212.404 257.93 Z M 234.98 274.192 C 231.396 274.192 228.685 273.173 226.849 271.134 C 225.012 269.096 224.093 266.173 224.093 262.365 L 224.093 259.677 L 231.082 259.677 L 231.082 262.902 C 231.082 265.949 232.359 267.472 234.913 267.472 C 236.167 267.472 237.119 267.102 237.769 266.363 C 238.418 265.624 238.743 264.426 238.743 262.768 C 238.743 260.797 238.295 259.061 237.399 257.56 C 236.503 256.059 234.845 254.256 232.426 252.15 C 229.38 249.462 227.252 247.032 226.042 244.859 C 224.833 242.686 224.228 240.234 224.228 237.501 C 224.228 233.782 225.169 230.904 227.05 228.866 C 228.932 226.827 231.665 225.808 235.249 225.808 C 238.788 225.808 241.465 226.827 243.279 228.866 C 245.093 230.904 246.001 233.827 246.001 237.635 L 246.001 239.584 L 239.012 239.584 L 239.012 237.165 C 239.012 235.552 238.698 234.376 238.071 233.637 C 237.444 232.898 236.525 232.528 235.316 232.528 C 232.852 232.528 231.62 234.029 231.62 237.03 C 231.62 238.733 232.079 240.323 232.997 241.802 C 233.916 243.28 235.585 245.072 238.004 247.178 C 241.095 249.866 243.223 252.307 244.388 254.502 C 245.553 256.698 246.135 259.274 246.135 262.23 C 246.135 266.083 245.183 269.04 243.279 271.101 C 241.375 273.162 238.609 274.192 234.98 274.192 Z M 250.366 226.48 L 270.526 226.48 L 270.526 233.2 L 257.758 233.2 L 257.758 245.632 L 267.905 245.632 L 267.905 252.352 L 257.758 252.352 L 257.758 266.8 L 270.526 266.8 L 270.526 273.52 L 250.366 273.52 L 250.366 226.48 Z M 285.175 274.192 C 281.636 274.192 278.937 273.184 277.077 271.168 C 275.218 269.152 274.289 266.307 274.289 262.634 L 274.289 237.366 C 274.289 233.693 275.218 230.848 277.077 228.832 C 278.937 226.816 281.636 225.808 285.175 225.808 C 288.714 225.808 291.413 226.816 293.273 228.832 C 295.132 230.848 296.061 233.693 296.061 237.366 L 296.061 242.339 L 289.073 242.339 L 289.073 236.896 C 289.073 233.984 287.841 232.528 285.377 232.528 C 282.913 232.528 281.681 233.984 281.681 236.896 L 281.681 263.171 C 281.681 266.038 282.913 267.472 285.377 267.472 C 287.841 267.472 289.073 266.038 289.073 263.171 L 289.073 255.981 L 296.061 255.981 L 296.061 262.634 C 296.061 266.307 295.132 269.152 293.273 271.168 C 291.413 273.184 288.714 274.192 285.175 274.192 Z M 300.498 226.48 L 311.451 226.48 C 315.259 226.48 318.037 227.365 319.784 229.134 C 321.531 230.904 322.405 233.626 322.405 237.299 L 322.405 240.189 C 322.405 245.072 320.792 248.163 317.567 249.462 L 317.567 249.597 C 319.359 250.134 320.624 251.232 321.363 252.89 C 322.103 254.547 322.472 256.765 322.472 259.542 L 322.472 267.808 C 322.472 269.152 322.517 270.238 322.607 271.067 C 322.696 271.896 322.92 272.714 323.279 273.52 L 315.752 273.52 C 315.483 272.758 315.304 272.042 315.215 271.37 C 315.125 270.698 315.08 269.488 315.08 267.741 L 315.08 259.139 C 315.08 256.989 314.733 255.488 314.039 254.637 C 313.344 253.786 312.146 253.36 310.443 253.36 L 307.89 253.36 L 307.89 273.52 L 300.498 273.52 L 300.498 226.48 Z M 310.578 246.64 C 312.056 246.64 313.165 246.259 313.904 245.498 C 314.643 244.736 315.013 243.459 315.013 241.667 L 315.013 238.038 C 315.013 236.336 314.711 235.104 314.106 234.342 C 313.501 233.581 312.549 233.2 311.25 233.2 L 307.89 233.2 L 307.89 246.64 L 310.578 246.64 Z M 327.576 226.48 L 347.736 226.48 L 347.736 233.2 L 334.968 233.2 L 334.968 245.632 L 345.115 245.632 L 345.115 252.352 L 334.968 252.352 L 334.968 266.8 L 347.736 266.8 L 347.736 273.52 L 327.576 273.52 L 327.576 226.48 Z M 357.749 233.2 L 350.021 233.2 L 350.021 226.48 L 372.869 226.48 L 372.869 233.2 L 365.141 233.2 L 365.141 273.52 L 357.749 273.52 L 357.749 233.2 Z M 386.847 274.192 C 383.218 274.192 380.441 273.162 378.514 271.101 C 376.588 269.04 375.625 266.128 375.625 262.365 L 375.625 237.635 C 375.625 233.872 376.588 230.96 378.514 228.899 C 380.441 226.838 383.218 225.808 386.847 225.808 C 390.476 225.808 393.253 226.838 395.18 228.899 C 397.106 230.96 398.069 233.872 398.069 237.635 L 398.069 262.365 C 398.069 266.128 397.106 269.04 395.18 271.101 C 393.253 273.162 390.476 274.192 386.847 274.192 Z M 386.847 267.472 C 389.401 267.472 390.677 265.926 390.677 262.835 L 390.677 237.165 C 390.677 234.074 389.401 232.528 386.847 232.528 C 384.293 232.528 383.017 234.074 383.017 237.165 L 383.017 262.835 C 383.017 265.926 384.293 267.472 386.847 267.472 Z" style="fill: rgb(230, 37, 37); white-space: pre;" transform="matrix(0.997564, -0.069756, 0.069756, 0.997564, -16.829952, 18.047901)"/>
  <path d="M 101.93 281.982 L 398.069 281.982 L 398.069 288.283 L 101.93 288.283 L 101.93 281.982 Z M 101.93 211.718 L 398.069 211.718 L 398.069 218.019 L 101.93 218.019 L 101.93 211.718 Z" style="fill: rgb(230, 37, 37); paint-order: fill;" transform="matrix(0.997564, -0.069756, 0.069756, 0.997564, -16.829988, 18.047869)"/>
</svg>